<mxfile host="app.diagrams.net" modified="2023-11-10T20:21:41.223Z" agent="Mozilla/5.0 (X11; Linux x86_64; rv:120.0) Gecko/20100101 Firefox/120.0" etag="TGCjOjoUQoARNv8S-0L0" version="22.1.0" type="github">
  <diagram id="C5RBs43oDa-KdzZeNtuy" name="Page-1">
    <mxGraphModel dx="3034" dy="1595" grid="1" gridSize="10" guides="1" tooltips="1" connect="1" arrows="1" fold="1" page="0" pageScale="1" pageWidth="827" pageHeight="1169" background="#000000" math="0" shadow="0">
      <root>
        <mxCell id="WIyWlLk6GJQsqaUBKTNV-0" />
        <mxCell id="WIyWlLk6GJQsqaUBKTNV-1" parent="WIyWlLk6GJQsqaUBKTNV-0" />
        <mxCell id="HWrYE3x-AZWAvHBdDH_S-20" value="" style="swimlane;startSize=0;fillStyle=solid;fillColor=#99CCFF;strokeColor=none;gradientColor=none;swimlaneFillColor=#99CCFF;" vertex="1" parent="WIyWlLk6GJQsqaUBKTNV-1">
          <mxGeometry x="-1409" y="-736" width="1539" height="688" as="geometry" />
        </mxCell>
        <mxCell id="HWrYE3x-AZWAvHBdDH_S-24" value="&lt;h1&gt;&lt;font face=&quot;Arial, sans-serif&quot;&gt;&lt;font size=&quot;3&quot;&gt;1. &lt;/font&gt;&lt;font style=&quot;font-size: 12pt&quot; size=&quot;3&quot;&gt;Miscellaneous Leave Management&lt;/font&gt;&lt;/font&gt;&lt;/h1&gt;&lt;br&gt;&lt;br&gt;&lt;h1&gt;&lt;style type=&quot;text/css&quot;&gt;p { color: #000000; line-height: 115%; text-align: justify; orphans: 2; widows: 2; margin-bottom: 0.1in; direction: ltr; background: transparent }p.western { font-family: &quot;Tahoma&quot;, sans-serif; font-size: 11pt; so-language: en-AU }p.cjk { font-family: &quot;Times New Roman&quot;, serif; font-size: 11pt; so-language: zh-CN }p.ctl { font-family: &quot;Times New Roman&quot;, serif; font-size: 10pt; so-language: ar-SA }a:link { color: #000080; text-decoration: underline }&lt;/style&gt;&lt;/h1&gt;" style="text;html=1;strokeColor=none;fillColor=none;spacing=5;spacingTop=-20;whiteSpace=wrap;overflow=hidden;rounded=0;" vertex="1" parent="HWrYE3x-AZWAvHBdDH_S-20">
          <mxGeometry x="30" y="6" width="290" height="41" as="geometry" />
        </mxCell>
        <mxCell id="HWrYE3x-AZWAvHBdDH_S-25" value="" style="swimlane;childLayout=stackLayout;resizeParent=1;resizeParentMax=0;startSize=20;html=1;swimlaneLine=1;fillStyle=solid;fillColor=none;strokeColor=none;" vertex="1" parent="HWrYE3x-AZWAvHBdDH_S-20">
          <mxGeometry x="169" y="96" width="1200" height="477" as="geometry" />
        </mxCell>
        <mxCell id="HWrYE3x-AZWAvHBdDH_S-26" value="Employee" style="swimlane;startSize=20;html=1;fillColor=#FF8000;strokeColor=#CC6600;" vertex="1" parent="HWrYE3x-AZWAvHBdDH_S-25">
          <mxGeometry y="20" width="280" height="457" as="geometry" />
        </mxCell>
        <mxCell id="HWrYE3x-AZWAvHBdDH_S-41" style="edgeStyle=orthogonalEdgeStyle;orthogonalLoop=1;jettySize=auto;html=1;rounded=0;" edge="1" parent="HWrYE3x-AZWAvHBdDH_S-26" source="HWrYE3x-AZWAvHBdDH_S-32" target="HWrYE3x-AZWAvHBdDH_S-39">
          <mxGeometry relative="1" as="geometry" />
        </mxCell>
        <mxCell id="HWrYE3x-AZWAvHBdDH_S-32" value="Fill out leave form" style="whiteSpace=wrap;html=1;rounded=1;" vertex="1" parent="HWrYE3x-AZWAvHBdDH_S-26">
          <mxGeometry x="60" y="60" width="180" height="60" as="geometry" />
        </mxCell>
        <mxCell id="HWrYE3x-AZWAvHBdDH_S-39" value="Submit Leave form" style="rounded=1;whiteSpace=wrap;html=1;" vertex="1" parent="HWrYE3x-AZWAvHBdDH_S-26">
          <mxGeometry x="60" y="170" width="180" height="60" as="geometry" />
        </mxCell>
        <mxCell id="HWrYE3x-AZWAvHBdDH_S-27" value="HoD/HoU" style="swimlane;startSize=20;html=1;fillColor=#FF8000;strokeColor=#CC6600;" vertex="1" parent="HWrYE3x-AZWAvHBdDH_S-25">
          <mxGeometry x="280" y="20" width="290" height="457" as="geometry" />
        </mxCell>
        <mxCell id="HWrYE3x-AZWAvHBdDH_S-58" style="edgeStyle=orthogonalEdgeStyle;orthogonalLoop=1;jettySize=auto;html=1;entryX=0.5;entryY=0;entryDx=0;entryDy=0;rounded=0;" edge="1" parent="HWrYE3x-AZWAvHBdDH_S-27" source="HWrYE3x-AZWAvHBdDH_S-42" target="HWrYE3x-AZWAvHBdDH_S-45">
          <mxGeometry relative="1" as="geometry" />
        </mxCell>
        <mxCell id="HWrYE3x-AZWAvHBdDH_S-42" value="Review and Recommend" style="rounded=1;whiteSpace=wrap;html=1;" vertex="1" parent="HWrYE3x-AZWAvHBdDH_S-27">
          <mxGeometry x="40" y="60" width="200" height="60" as="geometry" />
        </mxCell>
        <mxCell id="HWrYE3x-AZWAvHBdDH_S-45" value="Forward Leave Form" style="rounded=1;whiteSpace=wrap;html=1;" vertex="1" parent="HWrYE3x-AZWAvHBdDH_S-27">
          <mxGeometry x="40" y="170" width="200" height="60" as="geometry" />
        </mxCell>
        <mxCell id="HWrYE3x-AZWAvHBdDH_S-28" value="Head of Administration and Human Resouce" style="swimlane;startSize=20;html=1;fillColor=#FF8000;strokeColor=#CC6600;" vertex="1" parent="HWrYE3x-AZWAvHBdDH_S-25">
          <mxGeometry x="570" y="20" width="320" height="457" as="geometry" />
        </mxCell>
        <mxCell id="HWrYE3x-AZWAvHBdDH_S-56" value="Forward Leave Form" style="rounded=1;whiteSpace=wrap;html=1;" vertex="1" parent="HWrYE3x-AZWAvHBdDH_S-28">
          <mxGeometry x="60" y="60" width="200" height="60" as="geometry" />
        </mxCell>
        <mxCell id="HWrYE3x-AZWAvHBdDH_S-29" value="Chief&amp;nbsp; Exacative Officer" style="swimlane;startSize=20;html=1;fillColor=#FF8000;strokeColor=#CC6600;" vertex="1" parent="HWrYE3x-AZWAvHBdDH_S-25">
          <mxGeometry x="890" y="20" width="310" height="457" as="geometry" />
        </mxCell>
        <mxCell id="HWrYE3x-AZWAvHBdDH_S-57" style="edgeStyle=orthogonalEdgeStyle;orthogonalLoop=1;jettySize=auto;html=1;entryX=0;entryY=0.5;entryDx=0;entryDy=0;rounded=0;" edge="1" parent="HWrYE3x-AZWAvHBdDH_S-25" source="HWrYE3x-AZWAvHBdDH_S-39" target="HWrYE3x-AZWAvHBdDH_S-42">
          <mxGeometry relative="1" as="geometry">
            <Array as="points">
              <mxPoint x="290" y="220" />
              <mxPoint x="290" y="110" />
            </Array>
          </mxGeometry>
        </mxCell>
        <mxCell id="HWrYE3x-AZWAvHBdDH_S-59" style="edgeStyle=orthogonalEdgeStyle;orthogonalLoop=1;jettySize=auto;html=1;entryX=0;entryY=0.5;entryDx=0;entryDy=0;rounded=0;" edge="1" parent="HWrYE3x-AZWAvHBdDH_S-25" source="HWrYE3x-AZWAvHBdDH_S-45" target="HWrYE3x-AZWAvHBdDH_S-56">
          <mxGeometry relative="1" as="geometry">
            <Array as="points">
              <mxPoint x="590" y="220" />
              <mxPoint x="590" y="110" />
            </Array>
          </mxGeometry>
        </mxCell>
        <mxCell id="HWrYE3x-AZWAvHBdDH_S-33" value="" style="edgeStyle=orthogonalEdgeStyle;orthogonalLoop=1;jettySize=auto;html=1;rounded=0;" edge="1" parent="HWrYE3x-AZWAvHBdDH_S-20" source="HWrYE3x-AZWAvHBdDH_S-31" target="HWrYE3x-AZWAvHBdDH_S-32">
          <mxGeometry relative="1" as="geometry" />
        </mxCell>
        <mxCell id="HWrYE3x-AZWAvHBdDH_S-31" value="START" style="ellipse;whiteSpace=wrap;html=1;aspect=fixed;" vertex="1" parent="HWrYE3x-AZWAvHBdDH_S-20">
          <mxGeometry x="59" y="200" width="56" height="56" as="geometry" />
        </mxCell>
      </root>
    </mxGraphModel>
  </diagram>
</mxfile>
